<?xml version="1.0" encoding="utf-8"?>
<!-- Generator: Adobe Illustrator 22.0.1, SVG Export Plug-In . SVG Version: 6.00 Build 0)  -->
<svg version="1.1" id="Layer_1" xmlns="http://www.w3.org/2000/svg" x="0px" y="0px"
     viewBox="0 0 512 336.7" style="enable-background:new 0 0 512 336.7;" xml:space="preserve">
<style type="text/css">
	.st0{fill:#464655;}
	.st1{fill:#FFE15A;}
	.st2{fill:#FF4B55;}
	.st3{filter:url(#Adobe_OpacityMaskFilter);}
	.st4{fill:url(#SVGID_2_);}
	.st5{mask:url(#SVGID_1_);}
	.st6{fill:#F5F5F5;}
	.st7{fill:#41479B;}
</style>
    <g>
	<path class="st0" d="M512,112.5H0V9.5c0-4.9,4-8.8,8.8-8.8h494.3c4.9,0,8.8,4,8.8,8.8L512,112.5L512,112.5z"/>
        <path class="st1" d="M503.2,336.1H8.8c-4.9,0-8.8-4-8.8-8.8v-103h512v103C512,332.2,508,336.1,503.2,336.1z"/>
        <rect y="112.5" class="st2" width="512" height="111.8"/>
</g>
    <defs>
	<filter id="Adobe_OpacityMaskFilter" filterUnits="userSpaceOnUse" x="0" y="0.5" width="512" height="335.4">
		
			<feColorMatrix type="matrix" values="-1 0 0 0 1  0 -1 0 0 1  0 0 -1 0 1  0 0 0 1 0"
                           color-interpolation-filters="sRGB" result="source"/>
	</filter>
</defs>
    <mask maskUnits="userSpaceOnUse" x="0" y="0.5" width="512" height="335.4" id="SVGID_1_">
	<g class="st3">
		<linearGradient id="SVGID_2_" gradientUnits="userSpaceOnUse" x1="409.4374" y1="406.3295" x2="102.5635"
                        y2="-66.2149">
			<stop offset="0.2513" style="stop-color:#FFFFFF;stop-opacity:0"/>
            <stop offset="0.2801" style="stop-color:#FAFAFA;stop-opacity:0.1114"/>
            <stop offset="0.3122" style="stop-color:#EDEDED;stop-opacity:0.2354"/>
            <stop offset="0.3459" style="stop-color:#D7D7D7;stop-opacity:0.3655"/>
            <stop offset="0.3807" style="stop-color:#B8B8B8;stop-opacity:0.4998"/>
            <stop offset="0.4163" style="stop-color:#8F8F8F;stop-opacity:0.6374"/>
            <stop offset="0.4527" style="stop-color:#5E5E5E;stop-opacity:0.7777"/>
            <stop offset="0.4889" style="stop-color:#252525;stop-opacity:0.9176"/>
            <stop offset="0.5103" style="stop-color:#000000"/>
		</linearGradient>
        <rect y="0.4" class="st4" width="512" height="339.3"/>
	</g>
</mask>
    <g class="st5">
	<path class="st6" d="M503.2,335.9H8.8c-4.9,0-8.8-4-8.8-8.8V9.3c0-4.9,4-8.8,8.8-8.8h494.3c4.9,0,8.8,4,8.8,8.8v317.8
		C512,332,508,335.9,503.2,335.9z"/>
        <g>
		<path class="st2" d="M512,26.3H0v-17c0-4.9,4-8.8,8.8-8.8h494.3c4.9,0,8.8,4,8.8,8.8L512,26.3L512,26.3z"/>
            <rect x="0" y="103.7" class="st2" width="512" height="25.8"/>
            <rect x="0" y="52.1" class="st2" width="512" height="25.8"/>
            <path class="st2" d="M512,181.1H8.8c-4.9,0-8.8-4-8.8-8.8v-17h512V181.1z"/>
            <rect x="0" y="258.5" class="st2" width="512" height="25.8"/>
            <path class="st2" d="M503.2,335.9H8.8c-4.9,0-8.8-4-8.8-8.8v-17h512v17C512,332,508,335.9,503.2,335.9z"/>
            <rect x="0" y="206.9" class="st2" width="512" height="25.8"/>
	</g>
        <path class="st7" d="M229.5,0.5H8.8C4,0.5,0,4.4,0,9.3v163c0,4.9,4,8.8,8.8,8.8h220.7c4.9,0,8.8-4,8.8-8.8V9.3
		C238.3,4.4,234.4,0.5,229.5,0.5z"/>
        <g>
		<path class="st6" d="M24.8,20.7l2,5.9l6.2,0c0.8,0,1.1,1,0.5,1.5l-5,3.7l1.9,5.9c0.2,0.8-0.6,1.4-1.3,0.9L24,35l-5,3.6
			c-0.7,0.5-1.5-0.2-1.3-0.9l1.9-5.9l-5-3.7c-0.6-0.5-0.3-1.5,0.5-1.5l6.2,0l2-5.9C23.5,20,24.5,20,24.8,20.7z"/>
            <path class="st6" d="M24.8,51.4l2,5.9l6.2,0c0.8,0,1.1,1,0.5,1.5l-5,3.7l1.9,5.9c0.2,0.8-0.6,1.4-1.3,0.9l-5-3.6l-5,3.6
			c-0.7,0.5-1.5-0.2-1.3-0.9l1.9-5.9l-5-3.7c-0.6-0.5-0.3-1.5,0.5-1.5l6.2,0l2-5.9C23.5,50.6,24.5,50.6,24.8,51.4z"/>
            <path class="st6" d="M24.8,82l2,5.9l6.2,0c0.8,0,1.1,1,0.5,1.5l-5,3.7l1.9,5.9c0.2,0.8-0.6,1.4-1.3,0.9l-5-3.6l-5,3.6
			c-0.7,0.5-1.5-0.2-1.3-0.9l1.9-5.9l-5-3.7c-0.6-0.5-0.3-1.5,0.5-1.5l6.2,0l2-5.9C23.5,81.3,24.5,81.3,24.8,82z"/>
            <path class="st6" d="M24.8,112.7l2,5.9l6.2,0c0.8,0,1.1,1,0.5,1.5l-5,3.7l1.9,5.9c0.2,0.8-0.6,1.4-1.3,0.9l-5-3.6l-5,3.6
			c-0.7,0.5-1.5-0.2-1.3-0.9l1.9-5.9l-5-3.7c-0.6-0.5-0.3-1.5,0.5-1.5l6.2,0l2-5.9C23.5,111.9,24.5,111.9,24.8,112.7z"/>
            <path class="st6" d="M24.8,143.3l2,5.9l6.2,0c0.8,0,1.1,1,0.5,1.5l-5,3.7l1.9,5.9c0.2,0.8-0.6,1.4-1.3,0.9l-5-3.6l-5,3.6
			c-0.7,0.5-1.5-0.2-1.3-0.9l1.9-5.9l-5-3.7c-0.6-0.5-0.3-1.5,0.5-1.5l6.2,0l2-5.9C23.5,142.6,24.5,142.6,24.8,143.3z"/>
            <path class="st6" d="M48.6,35.8l2,5.9l6.2,0c0.8,0,1.1,1,0.5,1.5l-5,3.7l1.9,5.9c0.2,0.8-0.6,1.4-1.3,0.9l-5-3.6l-5,3.6
			c-0.7,0.5-1.5-0.2-1.3-0.9l1.9-5.9l-5-3.7c-0.6-0.5-0.3-1.5,0.5-1.5l6.2,0l2-5.9C47.3,35,48.3,35,48.6,35.8z"/>
            <path class="st6" d="M48.6,66.4l2,5.9l6.2,0c0.8,0,1.1,1,0.5,1.5l-5,3.7l1.9,5.9c0.2,0.8-0.6,1.4-1.3,0.9l-5-3.6l-5,3.6
			c-0.7,0.5-1.5-0.2-1.3-0.9l1.9-5.9l-5-3.7c-0.6-0.5-0.3-1.5,0.5-1.5l6.2,0l2-5.9C47.3,65.7,48.3,65.7,48.6,66.4z"/>
            <path class="st6" d="M48.6,97.1l2,5.9l6.2,0c0.8,0,1.1,1,0.5,1.5l-5,3.7l1.9,5.9c0.2,0.8-0.6,1.4-1.3,0.9l-5-3.6l-5,3.6
			c-0.7,0.5-1.5-0.2-1.3-0.9l1.9-5.9l-5-3.7c-0.6-0.5-0.3-1.5,0.5-1.5l6.2,0l2-5.9C47.3,96.3,48.3,96.3,48.6,97.1z"/>
            <path class="st6" d="M48.6,127.7l2,5.9l6.2,0c0.8,0,1.1,1,0.5,1.5l-5,3.7l1.9,5.9c0.2,0.8-0.6,1.4-1.3,0.9l-5-3.6l-5,3.6
			c-0.7,0.5-1.5-0.2-1.3-0.9l1.9-5.9l-5-3.7c-0.6-0.5-0.3-1.5,0.5-1.5l6.2,0l2-5.9C47.3,127,48.3,127,48.6,127.7z"/>
            <path class="st6" d="M72.4,20.7l2,5.9l6.2,0c0.8,0,1.1,1,0.5,1.5l-5,3.7l1.9,5.9c0.2,0.8-0.6,1.4-1.3,0.9l-5-3.6l-5,3.6
			c-0.7,0.5-1.5-0.2-1.3-0.9l1.9-5.9l-5-3.7c-0.6-0.5-0.3-1.5,0.5-1.5l6.2,0l2-5.9C71,20,72.1,20,72.4,20.7z"/>
            <path class="st6" d="M72.4,51.4l2,5.9l6.2,0c0.8,0,1.1,1,0.5,1.5l-5,3.7l1.9,5.9c0.2,0.8-0.6,1.4-1.3,0.9l-5-3.6l-5,3.6
			c-0.7,0.5-1.5-0.2-1.3-0.9l1.9-5.9l-5-3.7c-0.6-0.5-0.3-1.5,0.5-1.5l6.2,0l2-5.9C71,50.6,72.1,50.6,72.4,51.4z"/>
            <path class="st6" d="M72.4,82l2,5.9l6.2,0c0.8,0,1.1,1,0.5,1.5l-5,3.7l1.9,5.9c0.2,0.8-0.6,1.4-1.3,0.9l-5-3.6l-5,3.6
			c-0.7,0.5-1.5-0.2-1.3-0.9l1.9-5.9l-5-3.7c-0.6-0.5-0.3-1.5,0.5-1.5l6.2,0l2-5.9C71,81.3,72.1,81.3,72.4,82z"/>
            <path class="st6" d="M72.4,112.7l2,5.9l6.2,0c0.8,0,1.1,1,0.5,1.5l-5,3.7l1.9,5.9c0.2,0.8-0.6,1.4-1.3,0.9l-5-3.6l-5,3.6
			c-0.7,0.5-1.5-0.2-1.3-0.9l1.9-5.9l-5-3.7c-0.6-0.5-0.3-1.5,0.5-1.5l6.2,0l2-5.9C71,111.9,72.1,111.9,72.4,112.7z"/>
            <path class="st6" d="M72.4,143.3l2,5.9l6.2,0c0.8,0,1.1,1,0.5,1.5l-5,3.7l1.9,5.9c0.2,0.8-0.6,1.4-1.3,0.9l-5-3.6l-5,3.6
			c-0.7,0.5-1.5-0.2-1.3-0.9l1.9-5.9l-5-3.7c-0.6-0.5-0.3-1.5,0.5-1.5l6.2,0l2-5.9C71,142.6,72.1,142.6,72.4,143.3z"/>
            <path class="st6" d="M96.2,35.8l2,5.9l6.2,0c0.8,0,1.1,1,0.5,1.5l-5,3.7l1.9,5.9c0.2,0.8-0.6,1.4-1.3,0.9l-5-3.6l-5,3.6
			c-0.7,0.5-1.5-0.2-1.3-0.9l1.9-5.9l-5-3.7c-0.6-0.5-0.3-1.5,0.5-1.5l6.2,0l2-5.9C94.8,35,95.9,35,96.2,35.8z"/>
            <path class="st6" d="M96.2,66.4l2,5.9l6.2,0c0.8,0,1.1,1,0.5,1.5l-5,3.7l1.9,5.9c0.2,0.8-0.6,1.4-1.3,0.9l-5-3.6l-5,3.6
			c-0.7,0.5-1.5-0.2-1.3-0.9l1.9-5.9l-5-3.7c-0.6-0.5-0.3-1.5,0.5-1.5l6.2,0l2-5.9C94.8,65.7,95.9,65.7,96.2,66.4z"/>
            <path class="st6" d="M96.2,97.1l2,5.9l6.2,0c0.8,0,1.1,1,0.5,1.5l-5,3.7l1.9,5.9c0.2,0.8-0.6,1.4-1.3,0.9l-5-3.6l-5,3.6
			c-0.7,0.5-1.5-0.2-1.3-0.9l1.9-5.9l-5-3.7c-0.6-0.5-0.3-1.5,0.5-1.5l6.2,0l2-5.9C94.8,96.3,95.9,96.3,96.2,97.1z"/>
            <path class="st6" d="M96.2,127.7l2,5.9l6.2,0c0.8,0,1.1,1,0.5,1.5l-5,3.7l1.9,5.9c0.2,0.8-0.6,1.4-1.3,0.9l-5-3.6l-5,3.6
			c-0.7,0.5-1.5-0.2-1.3-0.9l1.9-5.9l-5-3.7c-0.6-0.5-0.3-1.5,0.5-1.5l6.2,0l2-5.9C94.8,127,95.9,127,96.2,127.7z"/>
            <path class="st6" d="M120,20.7l2,5.9l6.2,0c0.8,0,1.1,1,0.5,1.5l-5,3.7l1.9,5.9c0.2,0.8-0.6,1.4-1.3,0.9l-5-3.6l-5,3.6
			c-0.7,0.5-1.5-0.2-1.3-0.9l1.9-5.9l-5-3.7c-0.6-0.5-0.3-1.5,0.5-1.5l6.2,0l2-5.9C118.6,20,119.7,20,120,20.7z"/>
            <path class="st6" d="M120,51.4l2,5.9l6.2,0c0.8,0,1.1,1,0.5,1.5l-5,3.7l1.9,5.9c0.2,0.8-0.6,1.4-1.3,0.9l-5-3.6l-5,3.6
			c-0.7,0.5-1.5-0.2-1.3-0.9l1.9-5.9l-5-3.7c-0.6-0.5-0.3-1.5,0.5-1.5l6.2,0l2-5.9C118.6,50.6,119.7,50.6,120,51.4z"/>
            <path class="st6" d="M120,82l2,5.9l6.2,0c0.8,0,1.1,1,0.5,1.5l-5,3.7l1.9,5.9c0.2,0.8-0.6,1.4-1.3,0.9l-5-3.6l-5,3.6
			c-0.7,0.5-1.5-0.2-1.3-0.9l1.9-5.9l-5-3.7c-0.6-0.5-0.3-1.5,0.5-1.5l6.2,0l2-5.9C118.6,81.3,119.7,81.3,120,82z"/>
            <path class="st6" d="M120,112.7l2,5.9l6.2,0c0.8,0,1.1,1,0.5,1.5l-5,3.7l1.9,5.9c0.2,0.8-0.6,1.4-1.3,0.9l-5-3.6l-5,3.6
			c-0.7,0.5-1.5-0.2-1.3-0.9l1.9-5.9l-5-3.7c-0.6-0.5-0.3-1.5,0.5-1.5l6.2,0l2-5.9C118.6,111.9,119.7,111.9,120,112.7z"/>
            <path class="st6" d="M120,143.3l2,5.9l6.2,0c0.8,0,1.1,1,0.5,1.5l-5,3.7l1.9,5.9c0.2,0.8-0.6,1.4-1.3,0.9l-5-3.6l-5,3.6
			c-0.7,0.5-1.5-0.2-1.3-0.9l1.9-5.9l-5-3.7c-0.6-0.5-0.3-1.5,0.5-1.5l6.2,0l2-5.9C118.6,142.6,119.7,142.6,120,143.3z"/>
            <path class="st6" d="M143.8,35.8l2,5.9l6.2,0c0.8,0,1.1,1,0.5,1.5l-5,3.7l1.9,5.9c0.2,0.8-0.6,1.4-1.3,0.9l-5-3.6l-5,3.6
			c-0.7,0.5-1.5-0.2-1.3-0.9l1.9-5.9l-5-3.7c-0.6-0.5-0.3-1.5,0.5-1.5l6.2,0l2-5.9C142.4,35,143.5,35,143.8,35.8z"/>
            <path class="st6" d="M143.8,66.4l2,5.9l6.2,0c0.8,0,1.1,1,0.5,1.5l-5,3.7l1.9,5.9c0.2,0.8-0.6,1.4-1.3,0.9l-5-3.6l-5,3.6
			c-0.7,0.5-1.5-0.2-1.3-0.9l1.9-5.9l-5-3.7c-0.6-0.5-0.3-1.5,0.5-1.5l6.2,0l2-5.9C142.4,65.7,143.5,65.7,143.8,66.4z"/>
            <path class="st6" d="M143.8,97.1l2,5.9l6.2,0c0.8,0,1.1,1,0.5,1.5l-5,3.7l1.9,5.9c0.2,0.8-0.6,1.4-1.3,0.9l-5-3.6l-5,3.6
			c-0.7,0.5-1.5-0.2-1.3-0.9l1.9-5.9l-5-3.7c-0.6-0.5-0.3-1.5,0.5-1.5l6.2,0l2-5.9C142.4,96.3,143.5,96.3,143.8,97.1z"/>
            <path class="st6" d="M143.8,127.7l2,5.9l6.2,0c0.8,0,1.1,1,0.5,1.5l-5,3.7l1.9,5.9c0.2,0.8-0.6,1.4-1.3,0.9l-5-3.6l-5,3.6
			c-0.7,0.5-1.5-0.2-1.3-0.9l1.9-5.9l-5-3.7c-0.6-0.5-0.3-1.5,0.5-1.5l6.2,0l2-5.9C142.4,127,143.5,127,143.8,127.7z"/>
            <path class="st6" d="M167.5,20.7l2,5.9l6.2,0c0.8,0,1.1,1,0.5,1.5l-5,3.7l1.9,5.9c0.2,0.8-0.6,1.4-1.3,0.9l-5-3.6l-5,3.6
			c-0.7,0.5-1.5-0.2-1.3-0.9l1.9-5.9l-5-3.7c-0.6-0.5-0.3-1.5,0.5-1.5l6.2,0l2-5.9C166.2,20,167.3,20,167.5,20.7z"/>
            <path class="st6" d="M167.5,51.4l2,5.9l6.2,0c0.8,0,1.1,1,0.5,1.5l-5,3.7l1.9,5.9c0.2,0.8-0.6,1.4-1.3,0.9l-5-3.6l-5,3.6
			c-0.7,0.5-1.5-0.2-1.3-0.9l1.9-5.9l-5-3.7c-0.6-0.5-0.3-1.5,0.5-1.5l6.2,0l2-5.9C166.2,50.6,167.3,50.6,167.5,51.4z"/>
            <path class="st6" d="M167.5,82l2,5.9l6.2,0c0.8,0,1.1,1,0.5,1.5l-5,3.7l1.9,5.9c0.2,0.8-0.6,1.4-1.3,0.9l-5-3.6l-5,3.6
			c-0.7,0.5-1.5-0.2-1.3-0.9l1.9-5.9l-5-3.7c-0.6-0.5-0.3-1.5,0.5-1.5l6.2,0l2-5.9C166.2,81.3,167.3,81.3,167.5,82z"/>
            <path class="st6" d="M167.5,112.7l2,5.9l6.2,0c0.8,0,1.1,1,0.5,1.5l-5,3.7l1.9,5.9c0.2,0.8-0.6,1.4-1.3,0.9l-5-3.6l-5,3.6
			c-0.7,0.5-1.5-0.2-1.3-0.9l1.9-5.9l-5-3.7c-0.6-0.5-0.3-1.5,0.5-1.5l6.2,0l2-5.9C166.2,111.9,167.3,111.9,167.5,112.7z"/>
            <path class="st6" d="M167.5,143.3l2,5.9l6.2,0c0.8,0,1.1,1,0.5,1.5l-5,3.7l1.9,5.9c0.2,0.8-0.6,1.4-1.3,0.9l-5-3.6l-5,3.6
			c-0.7,0.5-1.5-0.2-1.3-0.9l1.9-5.9l-5-3.7c-0.6-0.5-0.3-1.5,0.5-1.5l6.2,0l2-5.9C166.2,142.6,167.3,142.6,167.5,143.3z"/>
            <path class="st6" d="M191.3,35.8l2,5.9l6.2,0c0.8,0,1.1,1,0.5,1.5l-5,3.7l1.9,5.9c0.2,0.8-0.6,1.4-1.3,0.9l-5-3.6l-5,3.6
			c-0.7,0.5-1.5-0.2-1.3-0.9l1.9-5.9l-5-3.7c-0.6-0.5-0.3-1.5,0.5-1.5l6.2,0l2-5.9C190,35,191.1,35,191.3,35.8z"/>
            <path class="st6" d="M191.3,66.4l2,5.9l6.2,0c0.8,0,1.1,1,0.5,1.5l-5,3.7l1.9,5.9c0.2,0.8-0.6,1.4-1.3,0.9l-5-3.6l-5,3.6
			c-0.7,0.5-1.5-0.2-1.3-0.9l1.9-5.9l-5-3.7c-0.6-0.5-0.3-1.5,0.5-1.5l6.2,0l2-5.9C190,65.7,191.1,65.7,191.3,66.4z"/>
            <path class="st6" d="M191.3,97.1l2,5.9l6.2,0c0.8,0,1.1,1,0.5,1.5l-5,3.7l1.9,5.9c0.2,0.8-0.6,1.4-1.3,0.9l-5-3.6l-5,3.6
			c-0.7,0.5-1.5-0.2-1.3-0.9l1.9-5.9l-5-3.7c-0.6-0.5-0.3-1.5,0.5-1.5l6.2,0l2-5.9C190,96.3,191.1,96.3,191.3,97.1z"/>
            <path class="st6" d="M191.3,127.7l2,5.9l6.2,0c0.8,0,1.1,1,0.5,1.5l-5,3.7l1.9,5.9c0.2,0.8-0.6,1.4-1.3,0.9l-5-3.6l-5,3.6
			c-0.7,0.5-1.5-0.2-1.3-0.9l1.9-5.9l-5-3.7c-0.6-0.5-0.3-1.5,0.5-1.5l6.2,0l2-5.9C190,127,191.1,127,191.3,127.7z"/>
            <path class="st6" d="M215.1,20.7l2,5.9l6.2,0c0.8,0,1.1,1,0.5,1.5l-5,3.7l1.9,5.9c0.2,0.8-0.6,1.4-1.3,0.9l-5-3.6l-5,3.6
			c-0.7,0.5-1.5-0.2-1.3-0.9l1.9-5.9l-5-3.7c-0.6-0.5-0.3-1.5,0.5-1.5l6.2,0l2-5.9C213.8,20,214.9,20,215.1,20.7z"/>
            <path class="st6" d="M215.1,51.4l2,5.9l6.2,0c0.8,0,1.1,1,0.5,1.5l-5,3.7l1.9,5.9c0.2,0.8-0.6,1.4-1.3,0.9l-5-3.6l-5,3.6
			c-0.7,0.5-1.5-0.2-1.3-0.9l1.9-5.9l-5-3.7c-0.6-0.5-0.3-1.5,0.5-1.5l6.2,0l2-5.9C213.8,50.6,214.9,50.6,215.1,51.4z"/>
            <path class="st6" d="M215.1,82l2,5.9l6.2,0c0.8,0,1.1,1,0.5,1.5l-5,3.7l1.9,5.9c0.2,0.8-0.6,1.4-1.3,0.9l-5-3.6l-5,3.6
			c-0.7,0.5-1.5-0.2-1.3-0.9l1.9-5.9l-5-3.7c-0.6-0.5-0.3-1.5,0.5-1.5l6.2,0l2-5.9C213.8,81.3,214.9,81.3,215.1,82z"/>
            <path class="st6" d="M215.1,112.7l2,5.9l6.2,0c0.8,0,1.1,1,0.5,1.5l-5,3.7l1.9,5.9c0.2,0.8-0.6,1.4-1.3,0.9l-5-3.6l-5,3.6
			c-0.7,0.5-1.5-0.2-1.3-0.9l1.9-5.9l-5-3.7c-0.6-0.5-0.3-1.5,0.5-1.5l6.2,0l2-5.9C213.8,111.9,214.9,111.9,215.1,112.7z"/>
            <path class="st6" d="M215.1,143.3l2,5.9l6.2,0c0.8,0,1.1,1,0.5,1.5l-5,3.7l1.9,5.9c0.2,0.8-0.6,1.4-1.3,0.9l-5-3.6l-5,3.6
			c-0.7,0.5-1.5-0.2-1.3-0.9l1.9-5.9l-5-3.7c-0.6-0.5-0.3-1.5,0.5-1.5l6.2,0l2-5.9C213.8,142.6,214.9,142.6,215.1,143.3z"/>
	</g>
</g>
</svg>
